<?xml version="1.0" standalone="no"?><!DOCTYPE svg PUBLIC "-//W3C//DTD SVG 1.1//EN" "http://www.w3.org/Graphics/SVG/1.1/DTD/svg11.dtd"><svg t="1592274325189" class="icon" viewBox="0 0 1024 1024" version="1.1" xmlns="http://www.w3.org/2000/svg" p-id="3333" data-spm-anchor-id="a313x.7781069.0.i14" xmlns:xlink="http://www.w3.org/1999/xlink" width="64" height="64"><defs><style type="text/css"></style></defs><path d="M242 670.7c-1.2-2-2.4-4-3.5-6.1 1.2 2 2.3 4 3.5 6.1zM238.5 664.6c-0.8-1.4-1.6-2.8-2.3-4.2 0.7 1.4 1.5 2.8 2.3 4.2z" fill="#FFC152" p-id="3334"></path><path d="M477.8 288.7c-13.3 9.4-29 14.2-44.8 14.1-14.6 0-26.5 11.4-26.5 26 0 14.3 11.6 26 25.9 26.1 25.4 0 50.5-7.4 72-21.6 28.8-19 48.9-48.7 55.8-82.6l2.5-47c-16.9-2.8-34.3-4.2-52-4.2v25.1c0.2 25.6-12.1 49.5-32.9 64.1z" fill="#FAFAF2" p-id="3335"></path><path d="M876.4 559.4c-2.7-29.3-26.8-48.8-53.2-48.2h1.6c-0.4-104.9-52.5-197.6-132.1-254-1.4-1-2.9-2.1-4.3-3.1-1.2-0.8-2.4-1.6-3.7-2.4-36.1-23.9-77.4-40.6-121.9-47.8l-2.5 47c-6.9 33.8-27 63.6-55.8 82.6-21.5 14.2-46.6 21.6-72 21.6-14.3 0-25.9-11.7-25.9-26.1 0-14.6 12-26 26.5-26 15.8 0 31.5-4.8 44.8-14.1 20.8-14.6 33.1-38.6 32.8-64v-26c-172.5 0-312.4 139.9-312.4 312.5-28.3 0.6-50.9 23.8-50.9 52.1s22.6 51.4 50.9 52.1c5.7 0 11.4-0.9 16.8-2.8 4.7 13.6 10.3 26.6 16.6 39.2 1.4 2.9 2.9 5.8 4.4 8.6 0.8 1.4 1.6 2.8 2.3 4.2 1.1 2 2.3 4.1 3.5 6.1 54.3 92.5 154.8 154.7 269.9 154.7 137.6 0 254.3-88.8 296.2-212.2-0.6-0.2-1.2-0.3-1.8-0.5h0.1c5.4 1.8 11.1 2.8 16.8 2.8 26.4 0.6 50.5-18.9 53.3-48.1 0.2-3 0.2-5.6 0-8.2zM640.9 432.8c28.7 0.1 52 23.5 52 52.2-0.1 28.8-23.5 52-52.2 52-28.8-0.1-52-23.5-52-52.2 0.1-28.8 23.5-52.1 52.2-52z m-21 198.2c11.5-8.7 27.8-6.5 36.5 5 0.1 0.1 0.2 0.3 0.3 0.4 8.5 11.3 5.9 27.4-5.4 35.9-83 62.7-198.1 62.7-281.1 0-11.3-8.5-13.9-24.6-5.4-35.9 0.1-0.1 0.2-0.3 0.3-0.4 8.7-11.5 24.9-13.7 36.5-5 64.4 48.6 153.8 48.6 218.3 0zM380.6 432.9c28.8 0 52.1 23.4 52 52.1-0.1 28.8-23.5 52.1-52.2 52.1-28.8-0.1-52-23.4-52-52.2 0-28.8 23.4-52 52.2-52z" fill="#FFC152" p-id="3336"></path><path d="M365.1 636c-0.1 0.1-0.2 0.3-0.3 0.4-8.5 11.3-5.9 27.4 5.4 35.9 83 62.7 198.1 62.7 281.1 0 11.3-8.5 13.9-24.6 5.4-35.9-0.1-0.1-0.2-0.3-0.3-0.4-8.7-11.5-24.9-13.7-36.5-5-64.5 48.5-153.8 48.5-218.3 0-11.6-8.7-27.8-6.5-36.5 5zM432.6 485c0-28.8-23.3-52.1-52-52.1-28.8 0-52.1 23.2-52.2 52-0.1 28.8 23.2 52.1 52 52.2 28.7 0 52.1-23.3 52.2-52.1zM640.9 432.8c-28.8-0.1-52.2 23.2-52.2 52-0.1 28.8 23.2 52.2 52 52.2 28.8 0.1 52.2-23.2 52.2-52 0-28.7-23.2-52.1-52-52.2z" fill="#fe752f" p-id="3337" data-spm-anchor-id="a313x.7781069.0.i11" class="selected"></path></svg>