<?xml version="1.0" standalone="no"?><!DOCTYPE svg PUBLIC "-//W3C//DTD SVG 1.1//EN" "http://www.w3.org/Graphics/SVG/1.1/DTD/svg11.dtd"><svg t="1592274981153" class="icon" viewBox="0 0 1024 1024" version="1.1" xmlns="http://www.w3.org/2000/svg" p-id="8338" xmlns:xlink="http://www.w3.org/1999/xlink" width="64" height="64"><defs><style type="text/css"></style></defs><path d="M814.6 593.9c-52.4-44.8-52.4-59.5-0.1-105.4l-0.3-48.1c0.3-23.2 1.1-46.4 0.7-69.5-0.4-31.6-21.1-48.1-52.2-41.8-25 5-50 10.1-74.7 16.3-12.6 3.2-21-0.5-29.9-9.1-27.5-26.8-55.5-53.1-83.5-79.3-41.3-38.5-83.9-38.5-125.2 0.1-28.1 26.2-56.1 52.5-83.5 79.3-8.9 8.7-17.4 12.2-29.9 9-24.7-6.2-49.7-11.2-74.7-16.3-30.7-6.2-51.9 10.4-52.5 41.9-0.4 21.6 0.5 43.2 0.8 64.7l-0.3 53c52.7 44.4 52.7 61.1-0.2 105.1-0.2 23.8-0.6 47.7-0.4 71.5 0.4 45.8 26.5 75.4 72.1 82.8 9.9 8.5 22 8.4 34 8.4 131.5 0.2 263 0.2 394.5 0 12 0 24.1 0.1 34-8.4 46.2-7.4 71.4-36.4 71.7-82.7 0.1-23.9-0.3-47.7-0.4-71.5z m-225.1-66.6c-15.3 19.5-33.1 36.9-52.4 52.5-16.4 13.3-34.3 13-50.6-0.3-19.2-15.7-37.1-33-52.3-52.6-15.5-20.1-14-34 3.4-53.3 10.2-11.2 22-20.9 31.5-32.9 4-5 7.1-10.2 4.8-14.6 3.6 2.1 7.2 0.9 10.1-1.3 19.6-15 38.3-15.4 56.8 2.1 3.5 3.3 8 6.8 13.6 4-1.8 5.1 1.7 10.3 5.7 15.2 8 10 17.9 18.2 26.5 27.7 17.3 19.3 18.7 33.3 2.9 53.5z" fill="#FFC152" p-id="8339"></path><path d="M280.8 748h462.6c-2 43.7-6.5 47.9-51.7 47.9H332.5c-45.2 0-49.7-4.2-51.7-47.9zM814.6 593.9c-20.7-3.6-46.9-33-46.9-52.6s26.1-49.1 46.7-52.8c43.6 49.7 43.6 54.8 0.2 105.4zM209.3 488.7c20.7 3.2 47.1 32.8 47.1 52.6 0 19.9-26.4 49.2-47.3 52.5-0.5-0.6-0.9-1.3-1.4-1.9-41.4-49.8-41.3-52.9 1.6-103.2zM473.3 425.7c34.9-28.9 43.1-28.4 82.2 4.8 12.6 13.3 25.3 26.6 37.8 40 19.5 20.9 20.1 40.4 0.6 61.4-16.9 18.2-34.4 35.8-52.6 52.6-18.4 17-39.9 17.1-58.2 0.3-18.8-17.3-37-35.5-54.3-54.4-18.1-19.8-17-39.6 1.7-59.6 14.1-15.2 28.5-30.1 42.8-45.1z" fill="#fe752f" p-id="8340" data-spm-anchor-id="a313x.7781069.0.i77" class="selected"></path></svg>