<?xml version="1.0" standalone="no"?><!DOCTYPE svg PUBLIC "-//W3C//DTD SVG 1.1//EN" "http://www.w3.org/Graphics/SVG/1.1/DTD/svg11.dtd"><svg t="1592274905600" class="icon" viewBox="0 0 1024 1024" version="1.1" xmlns="http://www.w3.org/2000/svg" p-id="5942" xmlns:xlink="http://www.w3.org/1999/xlink" width="64" height="64"><defs><style type="text/css"></style></defs><path d="M424.9 631.4l29.7-29.8c10.3-10.3 10.3-27.1 0-37.3-10.3-10.3-27.1-10.3-37.3 0l-29.8 29.8-29.8-29.8c-10.3-10.3-27-10.3-37.3 0-10.3 10.3-10.3 27.1 0 37.3l29.8 29.8-29.8 29.8c-10.3 10.3-10.3 27.1 0 37.3 5.2 5.1 11.9 7.7 18.7 7.7 6.8 0 13.6-2.6 18.7-7.7l29.8-29.8 29.7 29.8c5.2 5.1 11.9 7.7 18.7 7.7 6.8 0 13.6-2.6 18.7-7.7 10.3-10.3 10.3-27.1 0-37.3l-29.8-29.8z" fill="#FAFAF2" p-id="5943"></path><path d="M456.1 362.4H414v-42.1c0-14.6-11.8-26.4-26.4-26.4-14.6 0-26.4 11.8-26.4 26.4v42.1H319c-14.6 0-26.4 11.8-26.4 26.4 0 14.6 11.8 26.4 26.4 26.4h42.1v42.1c0 14.6 11.8 26.4 26.4 26.4 14.6 0 26.4-11.8 26.4-26.4v-42.1H456c14.6 0 26.4-11.8 26.4-26.4 0.1-14.6-11.7-26.4-26.3-26.4zM708.2 653.2h-137c-14.6 0-26.4 11.8-26.4 26.4 0 14.6 11.8 26.4 26.4 26.4h137c14.6 0 26.4-11.9 26.4-26.4 0-14.6-11.8-26.4-26.4-26.4z" fill="#fe752f" p-id="5944" data-spm-anchor-id="a313x.7781069.0.i49" class="selected"></path><path d="M708.2 362.4h-137c-14.6 0-26.4 11.8-26.4 26.4 0 14.6 11.8 26.4 26.4 26.4h137c14.6 0 26.4-11.8 26.4-26.4 0-14.6-11.8-26.4-26.4-26.4z" fill="#FAFAF2" p-id="5945"></path><path d="M708 565.7l-137 0.7c-14.6 0.1-26.4 11.9-26.3 26.5 0.1 14.6 11.9 26.4 26.5 26.3l137-0.7c14.6-0.1 26.4-11.9 26.3-26.5 0-14.6-11.9-26.4-26.5-26.3z" fill="#fe752f" p-id="5946" data-spm-anchor-id="a313x.7781069.0.i50" class="selected"></path><path d="M825.4 230.8c-9.1-10.4-18.7-20.3-28.7-29.8-19.2-13.9-42.8-22.2-68.3-22.2H295.8c-64.5 0-116.9 52.5-116.9 117v432.4c0 25 7.9 48.2 21.4 67.3 10 10.7 20.5 20.9 31.6 30.5 18.4 12.1 40.3 19.1 63.9 19.1h432.4c15.5 0 30.2-3 43.8-8.5 29.3-11.9 52.7-35.2 64.5-64.5 5.5-13.6 8.6-28.4 8.6-43.9V295.8c0-24-7.2-46.4-19.7-65zM454.7 698.6c-5.1 5.1-11.9 7.7-18.7 7.7-6.8 0-13.5-2.6-18.7-7.7l-29.7-29.8-29.8 29.8c-5.1 5.1-11.9 7.7-18.7 7.7-6.8 0-13.5-2.6-18.7-7.7-10.3-10.3-10.3-27.1 0-37.3l29.8-29.8-29.8-29.8c-10.3-10.3-10.3-27.1 0-37.3 10.3-10.3 27.1-10.3 37.3 0l29.8 29.8 29.8-29.8c10.3-10.3 27-10.3 37.3 0 10.3 10.3 10.3 27.1 0 37.3l-29.7 29.8 29.8 29.8c10.3 10.2 10.3 27 0 37.3z m1.4-283.4H414v42.1c0 14.6-11.8 26.4-26.4 26.4-14.6 0-26.4-11.8-26.4-26.4v-42.1H319c-14.6 0-26.4-11.8-26.4-26.4 0-14.6 11.8-26.4 26.4-26.4h42.1v-42.1c0-14.6 11.8-26.4 26.4-26.4 14.6 0 26.4 11.8 26.4 26.4v42.1H456c14.6 0 26.4 11.8 26.4 26.4 0.1 14.6-11.7 26.4-26.3 26.4zM708.2 706h-137c-14.6 0-26.4-11.8-26.4-26.4 0-14.6 11.8-26.4 26.4-26.4h137c14.6 0 26.4 11.8 26.4 26.4 0 14.5-11.8 26.4-26.4 26.4z m0-87.2h-137c-14.6 0-26.4-11.8-26.4-26.4 0-14.6 11.8-26.4 26.4-26.4h137c14.6 0 26.4 11.8 26.4 26.4 0 14.6-11.8 26.4-26.4 26.4z m0-203.6h-137c-14.6 0-26.4-11.8-26.4-26.4 0-14.6 11.8-26.4 26.4-26.4h137c14.6 0 26.4 11.8 26.4 26.4 0 14.6-11.8 26.4-26.4 26.4z" fill="#FFC152" p-id="5947"></path></svg>