<?xml version="1.0" standalone="no"?><!DOCTYPE svg PUBLIC "-//W3C//DTD SVG 1.1//EN" "http://www.w3.org/Graphics/SVG/1.1/DTD/svg11.dtd"><svg t="1592274412968" class="icon" viewBox="0 0 1024 1024" version="1.1" xmlns="http://www.w3.org/2000/svg" p-id="4609" xmlns:xlink="http://www.w3.org/1999/xlink" width="64" height="64"><defs><style type="text/css"></style></defs><path d="M510.9 379m-83.9 0a83.9 83.9 0 1 0 167.8 0 83.9 83.9 0 1 0-167.8 0Z" fill="#FAFAF2" p-id="4610"></path><path d="M398 574.2m-73.7 0a73.7 73.7 0 1 0 147.4 0 73.7 73.7 0 1 0-147.4 0Z" fill="#FAFAF2" p-id="4611"></path><path d="M515.1 708.6m-73.7 0a73.7 73.7 0 1 0 147.4 0 73.7 73.7 0 1 0-147.4 0Z" fill="#FAFAF2" p-id="4612"></path><path d="M870.5 338.2c-3.8-26.1-18-45.2-41-57.8-19.9-10.9-41.7-14.6-64-15.6-22.3-1.1-44.4 1.1-66.3 4.6-2.8 0.5-4.6-0.1-6.8-1.6-53.8-39.1-114-58.8-180.4-59.3-23.7-0.2-47 2.3-69.9 8.2-102.4 26.5-173.9 88.7-213.6 186.9-10.6 26.3-16.5 53.8-18.9 82.1-1.7 20.5-1.7 40.8 0.9 61.2 0.3 2.4-0.5 3.9-1.9 5.6-5.4 7-11.1 13.9-16.2 21.2-19 26.9-35.2 55.1-39 88.6-3.5 31 6.1 56.6 31.8 75.3 19.2 13.9 41.5 18.8 64.5 20.9 23.1 2.1 46.1 0.2 69.1-3.2 4.7-0.7 9.2-2.2 14.2 1.5 45.8 33.7 97.4 52.5 154 57.6 30 2.7 59.8 0.8 89.1-6 90.6-20.9 158.6-72 203.5-153.4 20-36.3 31.1-75.5 34.9-116.7 1.8-19.2 1.9-38.5-0.6-57.7-0.6-4.6-0.1-8.6 3.6-12 2.5-2.3 4.3-5.3 6.4-8 16.5-21.7 31.3-44.5 40.2-70.6 5.6-16.7 9-34 6.4-51.8zM397.7 623.1c-28.8 0-52.3-23.4-52.5-52.3-0.2-28.9 23.6-52.6 52.6-52.6 28.9 0.1 52.2 23.5 52.2 52.4 0 29-23.4 52.5-52.3 52.5z m111.6 124.4c-21.8-0.1-39.2-17.6-39.2-39.4 0-21.7 17.6-39.4 39.3-39.3 21.6 0 39.3 17.8 39.3 39.4-0.1 21.6-17.9 39.4-39.4 39.3z m2.3-292.2c-43.4-0.2-78.2-35.2-78.1-78.5 0.1-43.5 35.3-78.5 78.8-78.3 43.1 0.1 78.2 35.4 78.2 78.6-0.1 43.4-35.4 78.4-78.9 78.2z m0 0" fill="#FFC152" p-id="4613"></path><path d="M511.6 410.8c-18.7 0-33.8-15.3-33.6-34 0.1-18.7 15.4-33.9 34-33.8 18.9 0.1 34 15.5 33.9 34.4-0.1 18.5-15.5 33.5-34.3 33.4z m0 0M414.4 570.8c0 9.1-7.5 16.6-16.6 16.7-9.2 0.1-17-7.7-16.9-16.9 0.1-9.2 7.5-16.6 16.7-16.7 9.3-0.1 16.8 7.4 16.8 16.9z m0 0M496.8 708.1c0-6.8 5.5-12.5 12.3-12.6 6.9-0.1 12.8 5.7 12.8 12.7 0 6.8-5.6 12.4-12.4 12.6-7 0.1-12.7-5.6-12.7-12.7z m0 0" fill="#fe752f" p-id="4614" data-spm-anchor-id="a313x.7781069.0.i33" class="selected"></path></svg>