<?xml version="1.0" standalone="no"?><!DOCTYPE svg PUBLIC "-//W3C//DTD SVG 1.1//EN" "http://www.w3.org/Graphics/SVG/1.1/DTD/svg11.dtd"><svg t="1592274349015" class="icon" viewBox="0 0 1024 1024" version="1.1" xmlns="http://www.w3.org/2000/svg" p-id="3600" xmlns:xlink="http://www.w3.org/1999/xlink" width="64" height="64"><defs><style type="text/css"></style></defs><path d="M711.6 821.4H352.1c-70.9 0-129-58-129-129V331.6c0-70.9 58-129 129-129h359.5c70.9 0 129 58 129 129v360.8c0 70.9-58 129-129 129z" fill="#FFC152" p-id="3601" data-spm-anchor-id="a313x.7781069.0.i18" class=""></path><path d="M617.3 419.2H446.5c-28.5 0-51.8-23.3-51.8-51.8V337c0-28.5 23.3-51.8 51.8-51.8h170.7c28.5 0 51.8 23.3 51.8 51.8v30.4c0.1 28.5-23.2 51.8-51.7 51.8z" fill="#FFFFFF" p-id="3602"></path><path d="M227 347.5m-43.6 0a43.6 43.6 0 1 0 87.2 0 43.6 43.6 0 1 0-87.2 0Z" fill="#fe752f" p-id="3603" data-spm-anchor-id="a313x.7781069.0.i17" class="selected"></path><path d="M227 463.9m-43.6 0a43.6 43.6 0 1 0 87.2 0 43.6 43.6 0 1 0-87.2 0Z" fill="#fe752f" p-id="3604" data-spm-anchor-id="a313x.7781069.0.i16" class="selected"></path><path d="M227 580.3m-43.6 0a43.6 43.6 0 1 0 87.2 0 43.6 43.6 0 1 0-87.2 0Z" fill="#fe752f" p-id="3605" data-spm-anchor-id="a313x.7781069.0.i19" class="selected"></path><path d="M227 696.7m-43.6 0a43.6 43.6 0 1 0 87.2 0 43.6 43.6 0 1 0-87.2 0Z" fill="#fe752f" p-id="3606" data-spm-anchor-id="a313x.7781069.0.i20" class="selected"></path></svg>