<?xml version="1.0" standalone="no"?><!DOCTYPE svg PUBLIC "-//W3C//DTD SVG 1.1//EN" "http://www.w3.org/Graphics/SVG/1.1/DTD/svg11.dtd"><svg t="1592274371728" class="icon" viewBox="0 0 1024 1024" version="1.1" xmlns="http://www.w3.org/2000/svg" p-id="3869" xmlns:xlink="http://www.w3.org/1999/xlink" width="64" height="64"><defs><style type="text/css"></style></defs><path d="M423.3 760.7c-15.5-13.9-24-30.8-27.1-51.7-5-32.8-23.6-59-46.2-82.2-50.1-51.3-77.4-111.4-75.8-184.1 2.5-108.8 87.3-206.4 196.5-225.2 111.9-19.3 226.1 44.9 263 149.4 32.8 93.1 15.8 177.1-51.4 249.8-29.4 31.7-54.1 65-58.6 109.8-1.5 15-14.3 23.7-23.3 34.3-16.9 14.8-36.5 12.6-56.3 9.2-12.5-4.6-15.8-14.9-15.9-26.7-0.5-52.8-0.1-105.7-0.3-158.5-0.1-20.5 13-25.6 29.2-30 42.8-11.6 65.6-40.4 64.5-79.6-0.6-21.1-6.6-27.1-27.6-23.5-28.3 4.8-52 17.4-66.1 44.2-3.7 7-6.1 16.6-15.9 16.9-10 0.3-12.4-9.4-16.1-16.4-15-28.2-39.9-41.1-70.2-45.2-15.6-2.1-23.1 4.9-23.8 21.3-1.8 37.5 20 68.6 57.7 80.5 36.1 11.4 36.2 11.4 36.2 49.2 0 45.4 0.2 90.8-0.1 136.2-0.1 13-1 25.8-15.7 31.5-20 3.4-39.7 5.6-56.7-9.2z" fill="#FFC152" p-id="3870"></path><path d="M542.8 764.9c19.4 2 38.6 0 57.6-4.3-0.3 29.3-15.5 46.4-46.2 48.2-28.1 1.6-56.4 1.6-84.6 0-30.7-1.7-45.9-18.9-46.3-48.1 19 4.2 38.1 6.3 57.6 4.2 20.6-7.8 41.3-7.8 61.9 0z" fill="#fe752f" p-id="3871" data-spm-anchor-id="a313x.7781069.0.i24" class="selected"></path><path d="M542.8 764.9h-61.9c9.3-5.5 8.8-14.3 8.7-23.5-0.2-50.6-1.3-101.3 0.5-151.9 0.7-19.5-6.6-26.4-23.8-29-33.2-5-54.4-24.9-66.9-55.3-6.8-16.6-3.8-33.7-3.1-50.7 0.3-8 7.3-9.7 14.6-10.7 31.1-4.2 82.1 19.1 92.4 52.9 1.4 4.7 2.4 11.6 8.5 11.6 6.2 0 7.1-6.9 8.5-11.6 10.3-33.8 61.3-57 92.4-52.9 8.5 1.1 14.1 3.8 15.2 12.9 6.5 50.1-17 92.7-66.3 102.9-20.7 4.3-29.2 11.6-28.2 34.4 2.1 49.1 0.7 98.3 0.6 147.4 0 9.2-0.5 18 8.8 23.5z" fill="#fe752f" p-id="3872" data-spm-anchor-id="a313x.7781069.0.i23" class="selected"></path></svg>