<?xml version="1.0" standalone="no"?><!DOCTYPE svg PUBLIC "-//W3C//DTD SVG 1.1//EN" "http://www.w3.org/Graphics/SVG/1.1/DTD/svg11.dtd"><svg t="1592274397889" class="icon" viewBox="0 0 1024 1024" version="1.1" xmlns="http://www.w3.org/2000/svg" p-id="4343" xmlns:xlink="http://www.w3.org/1999/xlink" width="64" height="64"><defs><style type="text/css"></style></defs><path d="M743.8 749c0 17.2 13.9 31.1 31.1 31.1S806 766.2 806 749c0-17.2-13.9-31.1-31.1-31.1s-31.1 13.9-31.1 31.1z m0 0M507.1 601.6c-11.6 0-22.8-2.7-31.6-7.7l-95.9-53.8c-13.7-7.7-30.6 2.2-30.6 17.9v116c0 0.6 0 1.2 0.1 1.9 0 0.5 0.1 1.1 0.1 1.6 0.2 17.5 60.3 49.6 158 49.6s157.9-32.1 158-49.6V558.1c0-15.7-16.9-25.6-30.6-17.9L538.7 594c-8.8 4.9-20 7.6-31.6 7.6z" fill="#fe752f" p-id="4344" data-spm-anchor-id="a313x.7781069.0.i30" class="selected"></path><path d="M775 484.4c-11.7 0-21.1 9.5-21.1 21.1v167.6c0 11.7 9.4 21.1 21.1 21.1 11.7 0 21.1-9.4 21.1-21.1V505.5c0-11.6-9.5-21.1-21.1-21.1z" fill="#FFC152" p-id="4345"></path><path d="M796.6 398.4L525.4 246.3c-2.1-1.2-6.7-2.4-12.2-2.4-6.3 0-10.6 1.5-12.2 2.4l-18.9 10.6c-2.3 0.9-4.6 1.9-6.6 3.1L234.6 395.1c-2.2 1.2-4.2 2.6-6.1 4.1l-2.3 1.3c-20.7 11.6-20.7 41.4 0 53l2.3 1.3c1.9 1.5 3.9 2.8 6.1 4.1l67.3 37.8c0 0.6-0.2 1.1-0.2 1.7v179.5c0 1.3 0.1 2.6 0.3 3.9 4.5 60.8 105.6 92.6 205.1 92.6 100.6 0 202.8-32.5 205.2-94.7 0-0.6 0.1-1.2 0.1-1.8V502.7l84.2-47.2c22.3-12.5 22.3-44.6 0-57.1z m-131.4 159v120.2c-0.2 17.5-60.3 49.6-158 49.6s-157.9-32.1-158-49.6c0-0.9-0.1-1.7-0.2-2.6V557.4c0-15.4 16.6-25.1 30-17.6l96.5 54.2c2.2 1.2 4.5 2.3 6.9 3.2l18.6 10.4c2.1 1.2 6.7 2.4 12.2 2.4 6.3 0 10.7-1.5 12.2-2.4l124.4-69.8c8.5 2.1 15.4 9.6 15.4 19.6z" fill="#FFC152" p-id="4346"></path></svg>