<?xml version="1.0" standalone="no"?><!DOCTYPE svg PUBLIC "-//W3C//DTD SVG 1.1//EN" "http://www.w3.org/Graphics/SVG/1.1/DTD/svg11.dtd"><svg t="1592274690842" class="icon" viewBox="0 0 1024 1024" version="1.1" xmlns="http://www.w3.org/2000/svg" p-id="5403" xmlns:xlink="http://www.w3.org/1999/xlink" width="64" height="64"><defs><style type="text/css"></style></defs><path d="M512 860c-192.2 0-348-155.8-348-348s155.8-348 348-348 348 155.8 348 348c0 116-116 154.7-232 154.7s-116 38.7-77.3 77.3c38.6 38.6 176.8 116-38.7 116z m212.6-348c20.7 0 39.9-11.1 50.2-29 10.4-17.9 10.4-40.1 0-58s-29.5-29-50.2-29c-32 0-58 26-58 58s26 58 58 58zM608.7 357.3c20.7 0 39.9-11.1 50.2-29 10.4-17.9 10.4-40.1 0-58s-29.5-29-50.2-29c-32 0-58 26-58 58 0 32.1 25.9 58 58 58z m-193.4 0c20.7 0 39.9-11.1 50.2-29 10.4-17.9 10.4-40.1 0-58s-29.5-29-50.2-29c-32 0-58 26-58 58 0 32.1 26 58 58 58zM299.4 512c20.7 0 39.9-11.1 50.2-29 10.4-17.9 10.4-40.1 0-58s-29.5-29-50.2-29c-32 0-58 26-58 58s25.9 58 58 58z m0 0" fill="#FFC152" p-id="5404"></path><path d="M724.8 455m-59.4 0a59.4 59.4 0 1 0 118.8 0 59.4 59.4 0 1 0-118.8 0Z" fill="#fe752f" p-id="5405" data-spm-anchor-id="a313x.7781069.0.i42" class="selected"></path><path d="M609.6 301.4m-59.4 0a59.4 59.4 0 1 0 118.8 0 59.4 59.4 0 1 0-118.8 0Z" fill="#FAFAF2" p-id="5406"></path><path d="M414 297.8m-59.4 0a59.4 59.4 0 1 0 118.8 0 59.4 59.4 0 1 0-118.8 0Z" fill="#FAFAF2" p-id="5407"></path><path d="M298.8 455m-59.4 0a59.4 59.4 0 1 0 118.8 0 59.4 59.4 0 1 0-118.8 0Z" fill="#FAFAF2" p-id="5408"></path></svg>