<?xml version="1.0" standalone="no"?><!DOCTYPE svg PUBLIC "-//W3C//DTD SVG 1.1//EN" "http://www.w3.org/Graphics/SVG/1.1/DTD/svg11.dtd"><svg t="1592274957083" class="icon" viewBox="0 0 1024 1024" version="1.1" xmlns="http://www.w3.org/2000/svg" p-id="7541" xmlns:xlink="http://www.w3.org/1999/xlink" width="64" height="64"><defs><style type="text/css"></style></defs><path d="M758.1 385c-10.6 0.5-13.3 9.5-17.3 16.7-17.7 31.5-37.8 61.7-54 93.9-12.6 25.2-36 35-58.2 47-9.7 5.2-17 1.8-17.5-9.9-1-27.6-2-54.4 14-80 24-38.4 46-78.1 68.5-117.5 4.4-7.8 10.8-15.4 7-25.6-39.4-7.4-79.2-1.7-118.8-3.6-30.4-1.4-55.1 9.8-74.6 32.9-2.4 9.7-2.5 19.6-2.5 29.6 0.1 92.3 0.3 184.5-0.2 276.8-0.1 12.6 3.6 32-15.1 31.7-16.5-0.3-13.6-19-13.7-31.1-0.5-55.3-0.1-110.7-0.3-166.1 0-10.5 1.3-21.4-5.5-30.8l-0.9-0.6c11.7-37.6 9.9-75.2 0.2-112.9-14.9-19-35-28.8-58.7-29.4-36.8-0.9-73.7-1.2-110.6 0-40.5 1.3-76.7 36.6-78.2 75.9-1.1 28.3 0.2 56.7 0.4 85-0.3 64.7-0.9 129.3-0.7 194 0.2 46.8 36.5 83.1 83.8 83.9 32 0.6 64 0.5 95.9 0.1 17.6-0.2 33.5 3.8 48 14.1 26.8 19 54.2 19.4 81.1 0.5 15.2-10.7 31.6-14.9 50-14.7 32.7 0.4 65.4 0.7 98.1-0.2 42.6-1.2 80.1-37.1 80.3-78.5 0.6-93.6-0.2-187.4-0.5-281.2z" fill="#FFC152" p-id="7542"></path><path d="M758.1 385c-23.8 40-48.6 79.5-71 120.3-14.4 26.3-41 33.5-64.1 45.8-10 5.3-17.3-2.5-17.8-14-1.3-31.8-1.6-62.1 17.5-91.4 28.4-43.7 52.2-90.5 77.9-136 7.8-12.6 15.2-25.4 23.4-37.7 14.8-22.2 37.4-27.7 58.6-14.9 19.4 11.7 25.8 35.6 14.3 57.5-12.4 23.7-25.8 46.9-38.8 70.4z" fill="#fe752f" p-id="7543" data-spm-anchor-id="a313x.7781069.0.i68" class="selected"></path><path d="M468.5 449.9l0.6-114.3c12 9 24.7 10.4 38.1 3.4 6.7 6.4 3.9 14.7 4 22.2 0.3 97.8 0.3 195.6 0.3 293.5v8.5c0.1 14.2-7.4 24.6-20.6 24.9-14.6 0.3-22.1-10.5-22.1-25.5 0-50.3 0.1-100.7 0.1-151 0-20.6-0.2-41.2-0.4-61.7z" fill="#F4A919" p-id="7544"></path></svg>