<?xml version="1.0" standalone="no"?><!DOCTYPE svg PUBLIC "-//W3C//DTD SVG 1.1//EN" "http://www.w3.org/Graphics/SVG/1.1/DTD/svg11.dtd"><svg t="1592274964495" class="icon" viewBox="0 0 1024 1024" version="1.1" xmlns="http://www.w3.org/2000/svg" p-id="7807" xmlns:xlink="http://www.w3.org/1999/xlink" width="64" height="64"><defs><style type="text/css"></style></defs><path d="M286.2 695.7c0-75-0.4-150.1 0.2-225.1 0.8-106.7 73.6-199.3 173.1-221.1 108-23.7 211.9 27.1 258.3 126.7 12.6 27.1 19.8 55.8 20 85.9 0.3 77.9 0.3 155.7 0.4 233.6-7.9 8-18.2 7-27.9 7-132 0.2-264.1 0.2-396.1 0-9.8-0.1-20.1 0.9-28-7z" fill="#FFC152" p-id="7808"></path><path d="M286.2 695.7h451.9c29.3 0.7 50.6 19.2 49.8 43.2-0.8 23.5-21.7 41.3-50.1 41.3-150.7 0.2-301.3 0.2-452 0-28.2 0-49.2-18.1-49.7-41.6-0.6-24.1 20.8-42.4 50.1-42.9zM496.7 607.7c-13.1-1.5-16.4-9-13.5-19.6 3.7-13.5 6.9-27.4 12.6-40.1 7.5-16.8 0.4-24.7-14-31.1-13.5-6-26.7-12.7-39.5-19.8-18.3-10.2-20.6-25.1-5.4-39 17.7-16.2 36.6-31.1 54.8-46.7 4.6-3.9 9.5-6.9 15.2-3.3 6.9 4.3 5 10.3 3 16.8-9 30.7-8.9 30.7 21 44 17.3 7.7 34.9 14.9 52 23.2 16 7.8 20.9 25 8.8 36.3-27.9 25.9-57.4 50.2-86.4 74.9-2.7 2.1-6.2 3.2-8.6 4.4z" fill="#fe752f" p-id="7809" data-spm-anchor-id="a313x.7781069.0.i71" class="selected"></path></svg>