<?xml version="1.0" standalone="no"?><!DOCTYPE svg PUBLIC "-//W3C//DTD SVG 1.1//EN" "http://www.w3.org/Graphics/SVG/1.1/DTD/svg11.dtd"><svg t="1586929701152" class="icon" viewBox="0 0 1316 1024" version="1.1" xmlns="http://www.w3.org/2000/svg" p-id="5356" xmlns:xlink="http://www.w3.org/1999/xlink" width="20.5625" height="16"><defs><style type="text/css"></style></defs><path d="M654.628571 1019.465143c-34.523429 0-77.750857-16.822857-112.347428-50.468572L127.268571 557.202286c-51.931429-58.88-95.085714-117.76-95.085714-226.962286C32.182857 153.746286 179.2 2.486857 369.371429 2.486857c69.12 0 138.24 16.822857 190.171428 58.806857 17.261714 16.822857 25.892571 42.057143 8.630857 58.806857-17.334857 16.822857-43.227429 25.234286-60.562285 8.411429-43.154286-25.161143-95.085714-41.984-147.017143-41.984-138.24 0-250.660571 109.275429-250.660572 243.712 0 75.629714 25.965714 117.686857 77.824 176.493714l414.939429 403.456c17.334857 16.822857 34.596571 25.234286 51.931428 25.234286 17.261714 0 34.523429-8.411429 51.858286-25.234286l414.939429-403.456c34.596571-33.645714 77.824-92.452571 77.824-176.493714 0-134.436571-112.420571-243.712-250.733715-243.712-60.489143 0-121.051429 25.161143-172.909714 67.218286L602.770286 321.828571a42.642286 42.642286 0 0 1-60.489143 0 39.862857 39.862857 0 0 1 0-58.806857l172.909714-168.082285c60.489143-58.88 147.017143-84.114286 224.768-84.114286 181.540571 0 337.188571 142.921143 337.188572 327.826286 0 100.864-51.931429 184.905143-95.085715 226.962285l-415.012571 403.382857c-34.596571 33.645714-77.824 50.468571-112.420572 50.468572z" p-id="5357" fill="#ffc300"></path></svg>