<?xml version="1.0" standalone="no"?><!DOCTYPE svg PUBLIC "-//W3C//DTD SVG 1.1//EN" "http://www.w3.org/Graphics/SVG/1.1/DTD/svg11.dtd"><svg t="1590369611757" class="icon" viewBox="0 0 1024 1024" version="1.1" xmlns="http://www.w3.org/2000/svg" p-id="3647" xmlns:xlink="http://www.w3.org/1999/xlink" width="128" height="128"><defs><style type="text/css"></style></defs><path d="M133 909.5c0-24.6 169.7-44.5 379-44.5s379 19.9 379 44.5S721.3 954 512 954s-379-19.9-379-44.5z" fill="#EDEDEE" p-id="3648"></path><path d="M268 436c0-134.8 109.2-244 244-244s244 109.2 244 244-109.2 244-244 244-244-109.2-244-244z" fill="#FEEAB8" p-id="3649"></path><path d="M187.2 533.6l-0.8-2.3-0.4-2.3v-2.3l0.3-2.2 0.7-2.2 1-2 1.3-1.9 1.6-1.7 1.8-1.4 2.1-1.1 2.3-0.8 2.3-0.4h2.3l2.2 0.3 2.2 0.7 2 1 1.9 1.3 1.7 1.6 1.4 1.8 1.1 2.1 100.3 227.5L542 614.4l5.4-122.1 31.9-223.9 0.3-1.5 0.4-1.5 0.6-1.4 0.7-1.3 0.9-1.2 1-1.1 1.1-1 1.2-0.9 1.3-0.8 1.4-0.7 254.5-106.9 4.6-1.1 4.5 0.4 4.2 1.7 3.5 2.9 2.5 4 1.1 4.6-0.4 4.5-1.7 4.2-2.9 3.5-4 2.5-246.8 103.5-30.5 213.5-5.8 129.3-0.1 1.5-0.3 1.4-0.4 1.4-0.6 1.3-0.7 1.3-0.8 1.2-0.9 1.1-1 1-1.1 0.9-1.2 0.8-248.8 147.4-2.3 1.1-2.4 0.7-2.4 0.3-2.4-0.2-2.4-0.5-2.2-0.9-2.1-1.3-1.8-1.6-1.6-2-1.2-2.3-107.1-242.6z" fill="#66605A" p-id="3650"></path><path d="M217.1 472.9c-1.8-1.7-4.5-2.2-6.8-1.2l-25.9 10.2-23.1-15.5c-2.1-1.4-4.7-1.5-6.9-0.2-2.2 1.2-3.4 3.6-3.3 6.1l1.7 27.8-21.9 17.1c-2 1.5-2.9 4.1-2.4 6.5 0.5 2.4 2.4 4.4 4.8 5l26.9 6.9 9.5 26.1c0.9 2.3 3 4 5.4 4.3 2.5 0.3 4.9-0.9 6.2-3l15-23.5 27.8-1c1.1 0 2.1-0.3 3-0.9 1.2-0.7 2.1-1.7 2.7-3 1-2.3 0.7-4.9-0.9-6.8l-17.7-21.5 7.7-26.7c0.8-2.4 0-5-1.8-6.7zM367.2 747.2c-0.8-2.4-2.8-4.1-5.3-4.5l-27.4-4-12.3-25c-1.1-2.2-3.4-3.7-5.8-3.7s-4.7 1.4-5.8 3.7l-12.3 25-27.4 4c-2.5 0.4-4.5 2.1-5.3 4.5-0.8 2.4-0.1 5 1.7 6.7l19.8 19.5-4.7 27.5c-0.4 2.5 0.6 5 2.6 6.4 2 1.5 4.7 1.7 6.9 0.5l24.5-13 24.5 13c1 0.5 2 0.8 3 0.8 1.4 0 2.7-0.4 3.8-1.3 2-1.5 3-4 2.6-6.4l-4.7-27.5 19.8-19.5c2-1.7 2.6-4.3 1.8-6.7zM603.5 480.6c-1.2-2.2-3.6-3.5-6.1-3.3l-27.8 1.4-16.9-22.1c-1.5-2-4-2.9-6.5-2.4-2.4 0.5-4.4 2.3-5.1 4.7l-7.3 26.8-26.3 9.2c-2.4 0.8-4 2.9-4.3 5.4-0.3 2.5 0.8 4.9 2.9 6.3l23.3 15.2 0.6 27.8c0.1 2.5 1.5 4.7 3.8 5.8 2.3 1.1 4.9 0.7 6.9-0.8l21.7-17.4 26.7 8c1 0.3 2.1 0.4 3.1 0.2 1.3-0.3 2.6-0.9 3.5-2 1.7-1.8 2.2-4.4 1.3-6.8l-9.9-26 15.8-22.9c1.7-2.3 1.8-4.9 0.6-7.1zM642.1 251.6c-1.2-2.2-3.6-3.5-6.1-3.3l-27.8 1.4-16.9-22.1c-1.5-2-4-2.9-6.5-2.4-2.4 0.5-4.4 2.3-5.1 4.7l-7.3 26.8-26.3 9.2c-2.4 0.8-4 2.9-4.3 5.4-0.3 2.5 0.8 4.9 2.9 6.3l23.3 15.2 0.6 27.8c0.1 2.5 1.5 4.7 3.8 5.8 2.3 1.1 4.9 0.7 6.9-0.8l21.7-17.4 26.7 8c1 0.3 2.1 0.4 3.1 0.2 1.3-0.3 2.6-0.9 3.5-2 1.7-1.8 2.2-4.4 1.3-6.8l-9.9-26 15.8-22.9c1.7-2.3 1.8-5 0.6-7.1zM892.7 141c-1.2-2.2-3.6-3.5-6.1-3.3l-27.8 1.4-16.9-22.1c-1.5-2-4-2.9-6.5-2.4-2.4 0.5-4.4 2.3-5.1 4.7l-7.3 26.8-26.3 9.2c-2.4 0.8-4 2.9-4.3 5.4-0.3 2.5 0.8 4.9 2.9 6.3l23.3 15.2 0.6 27.8c0.1 2.5 1.5 4.7 3.8 5.8 2.3 1.1 4.9 0.7 6.9-0.8l21.7-17.4 26.7 8c1 0.3 2.1 0.4 3.1 0.2 1.3-0.3 2.6-0.9 3.5-2 1.7-1.8 2.2-4.4 1.3-6.8l-9.9-26 15.8-22.9c1.7-2.3 1.8-4.9 0.6-7.1z" fill="#FED572" p-id="3651"></path></svg>