<?xml version="1.0" standalone="no"?><!DOCTYPE svg PUBLIC "-//W3C//DTD SVG 1.1//EN" "http://www.w3.org/Graphics/SVG/1.1/DTD/svg11.dtd"><svg t="1585986978563" class="icon" viewBox="0 0 1024 1024" version="1.1" xmlns="http://www.w3.org/2000/svg" p-id="1249" xmlns:xlink="http://www.w3.org/1999/xlink" width="128" height="128"><defs><style type="text/css"></style></defs><path d="M133 909.5c0-24.6 169.7-44.5 379-44.5s379 19.9 379 44.5S721.3 954 512 954s-379-19.9-379-44.5z" fill="#EDEDEE" p-id="1250"></path><path d="M868.2 162.8l-287 259.7c-2.8 2.5-7.1 2.4-9.7-0.4l-4.7-4.9c-2.6-2.7-2.5-7 0.1-9.7l273.5-273.9c2.8-2.8 7.2-2.7 9.9 0.1l18.2 19.1c2.8 2.9 2.6 7.4-0.3 10" fill="#45413D" p-id="1251"></path><path d="M580.1 289.4c-7.1 41.2-41.5 63.7-67.7 52.6 12.3-32 39.3-56.5 67.7-52.6z" fill="#44BC7D" p-id="1252"></path><path d="M488.6 266.5c-12.4 39.9 8.1 75.6 36.5 77.6 3.4-34.1-9.5-68.1-36.5-77.6z" fill="#7CD0A4" p-id="1253"></path><path d="M396 441c0-56.9 46.1-103 103-103s103 46.1 103 103-46.1 103-103 103-103-46.1-103-103z" fill="#F99552" p-id="1254"></path><path d="M287 509c0-56.9 45.9-103 102.5-103S492 452.1 492 509s-45.9 103-102.5 103S287 565.9 287 509z" fill="#A3DFFD" p-id="1255"></path><path d="M519 507.5c0-56.6 46.1-102.5 103-102.5s103 45.9 103 102.5S678.9 610 622 610s-103-45.9-103-102.5z" fill="#FB6568" p-id="1256"></path><path d="M165 755c0-5 4-9 9-9h70c5 0 9 4 9 9v36c0 5-4 9-9 9h-70c-5 0-9-4-9-9v-36zM733 755c0-5 4-9 9-9h71c5 0 9 4 9 9v36c0 5-4 9-9 9h-71c-5 0-9-4-9-9v-36z" fill="#976C4F" p-id="1257"></path><path d="M126 693.3c0-6.8 5.5-12.3 12.3-12.3h721.3c6.8 0 12.3 5.5 12.3 12.3v49.3c0 6.8-5.5 12.3-12.3 12.3H138.3c-6.8 0-12.3-5.5-12.3-12.3v-49.3z" fill="#BD9981" p-id="1258"></path><path d="M336 683h343c21 0 38-17 38-38v-26.5c0-6.3-5.1-11.5-11.5-11.5h-396c-6.3 0-11.5 5.1-11.5 11.5V645c0 21 17 38 38 38z" fill="#FDB80B" p-id="1259"></path><path d="M227 515h565l-0.4 7.8c-5 49-29.5 92.3-65.6 122l-6.9 5.2H299.9l-6.9-5.2c-36.1-29.7-60.6-73-65.6-122l-0.4-7.8z" fill="#FED572" p-id="1260"></path><path d="M277.1 392c52.1 37.7 59.8 100.5 26.7 129.1-35.7-38.7-51.3-92.5-26.7-129.1z" fill="#44BC7D" p-id="1261"></path><path d="M183.4 502.8c46.7 44.2 109.9 40.1 131.8 2.3-44.6-27.9-100.4-33.2-131.8-2.3z" fill="#7CD0A4" p-id="1262"></path><path d="M917 223.7l-328.9 204c-3.2 2-7.4 1.1-9.4-2.1l-3.7-5.7c-2.1-3.1-1.2-7.4 1.8-9.5L895 190c3.2-2.2 7.6-1.4 9.7 1.9l14.5 22.1c2.1 3.3 1.2 7.7-2.2 9.7" fill="#66605A" p-id="1263"></path></svg>