<?xml version="1.0" standalone="no"?><!DOCTYPE svg PUBLIC "-//W3C//DTD SVG 1.1//EN" "http://www.w3.org/Graphics/SVG/1.1/DTD/svg11.dtd"><svg t="1590369616658" class="icon" viewBox="0 0 1024 1024" version="1.1" xmlns="http://www.w3.org/2000/svg" p-id="3778" xmlns:xlink="http://www.w3.org/1999/xlink" width="128" height="128"><defs><style type="text/css"></style></defs><path d="M392 585h235v62H392z" fill="#FB6568" p-id="3779"></path><path d="M511.5 183c55.7 0 101.5 42.3 107 96.5l0.5 9.5H404l0.5-9.5c5.5-54.2 51.3-96.5 107-96.5z" fill="#FB6568" p-id="3780"></path><path d="M360.3 569.2L403.4 289h217.2l43.1 280.2c2.5 16.2-10 30.8-26.3 30.8H386.6c-16.3 0-28.8-14.6-26.3-30.8" fill="#FEE6AA" p-id="3781"></path><path d="M454 347.5c0-1.9 1.6-3.5 3.5-3.5h45c1.9 0 3.5 1.6 3.5 3.5v39c0 1.9-1.6 3.5-3.5 3.5h-45c-1.9 0-3.5-1.6-3.5-3.5v-39zM518 347.5c0-1.9 1.6-3.5 3.5-3.5h45c1.9 0 3.5 1.6 3.5 3.5v39c0 1.9-1.6 3.5-3.5 3.5h-45c-1.9 0-3.5-1.6-3.5-3.5v-39zM454 407.5c0-1.9 1.6-3.5 3.5-3.5h44c1.9 0 3.5 1.6 3.5 3.5v39c0 1.9-1.6 3.5-3.5 3.5h-44c-1.9 0-3.5-1.6-3.5-3.5v-39zM518 407.5c0-1.9 1.6-3.5 3.5-3.5h45c1.9 0 3.5 1.6 3.5 3.5v39c0 1.9-1.6 3.5-3.5 3.5h-45c-1.9 0-3.5-1.6-3.5-3.5v-39z" fill="#F9C88A" p-id="3782"></path><path d="M366 63.1l109.8 99.1c2.7 2.4 2.9 6.5 0.5 9.2l-21.7 24.1L335 87.7l21.7-24.1c2.5-2.7 6.6-2.9 9.3-0.5z" fill="#FDB80B" p-id="3783"></path><path d="M332.1 92l9.8-10.9 175.9 158.7-9.8 10.9L332.1 92z" fill="#976C4F" p-id="3784"></path><path d="M691.4 102.3l-99.1 109.8c-2.4 2.7-6.5 2.9-9.2 0.5L559 190.8 666.8 71.4l24.1 21.7c2.7 2.4 2.9 6.5 0.5 9.2z" fill="#FDB80B" p-id="3785"></path><path d="M662.5 68.5l10.9 9.8-158.7 175.9-10.9-9.8L662.5 68.5z" fill="#976C4F" p-id="3786"></path><path d="M658.2 429.4l-109.8-99.1c-2.7-2.4-2.9-6.5-0.5-9.2l21.7-24.1L689 404.8 667.4 429c-2.4 2.6-6.5 2.8-9.2 0.4z" fill="#FDB80B" p-id="3787"></path><path d="M692 400.6l-9.8 10.9-175.9-158.7 9.8-10.9L692 400.6z" fill="#976C4F" p-id="3788"></path><path d="M332.8 390.3l99.1-109.8c2.4-2.7 6.5-2.9 9.2-0.5l24.1 21.7-107.9 119.5-24.1-21.7c-2.6-2.4-2.8-6.6-0.4-9.2z" fill="#FDB80B" p-id="3789"></path><path d="M361.6 424.1l-10.9-9.8 158.7-175.9 10.9 9.8-158.7 175.9z" fill="#976C4F" p-id="3790"></path><path d="M133 909.5c0-24.6 169.7-44.5 379-44.5s379 19.9 379 44.5S721.3 954 512 954s-379-19.9-379-44.5z" fill="#EDEDEE" p-id="3791"></path><path d="M207.2 803.3L286.8 654c3.3-6.1 9.7-10 16.7-10h417.1c7 0 13.4 3.8 16.7 10l79.5 149.3c6.7 12.5-2.4 27.7-16.7 27.7H223.9c-14.2 0-23.3-15.1-16.7-27.7" fill="#976C4F" p-id="3792"></path><path d="M599.7 700.2l15.1 54.7H693l-19.1-54.7h-74.2z m-87.3 0v54.7h88.5l-15.1-54.7h-73.4z m-77.9 0l-15.1 54.7H499v-54.7h-64.5z m-88.1 0l-19.1 54.7h78.4l15.1-54.7h-74.4zM352 644h14.1l-15 42.9h73.3l11.8-42.9H450l-11.8 42.9h60.9V644h13.3v42.9h69.8L570.4 644h13.8l11.8 42.9h73.1l-15-42.9h14.1l15 42.9h71.5l7.1 13.3h-73.9l19.1 54.7h83.9l7.1 13.3h-86.3l22 62.8h-14.1l-22-62.8h-79.2l17.3 62.8h-13.8l-17.3-62.8h-92.2V831h-13.3v-62.8h-83.3L398.5 831h-13.8l17.3-62.8h-79.4l-22 62.8h-14.1l22-62.8h-82.6l7.1-13.3h80.1l19.1-54.7h-70.1l7.1-13.3h67.7L352 644z" fill="#6E4F3A" p-id="3793"></path><path d="M590.9 694.7c0.2 23.1-13.5 45.8-35.7 51.3-6-28.4 12.9-51.8 35.7-51.3z" fill="#44BC7D" p-id="3794"></path><path d="M520.8 703.6c0.4 28.2 20.9 46.6 39.4 41.9-4.9-22.3-20.2-41.5-39.4-41.9z" fill="#7CD0A4" p-id="3795"></path><path d="M426.2 627.3c0.1 19.5-11.4 38.6-30.1 43.3-5.1-24 10.8-43.8 30.1-43.3z" fill="#44BC7D" p-id="3796"></path><path d="M367 634.8c0.4 23.8 17.7 39.3 33.3 35.4-4.2-18.9-17.1-35.1-33.3-35.4z" fill="#7CD0A4" p-id="3797"></path><path d="M509.2 739.7c0.2 29.8-17.4 59-46.1 66.2-7.7-36.6 16.7-66.9 46.1-66.2z" fill="#44BC7D" p-id="3798"></path><path d="M418.8 751.2c0.5 36.4 27 60.1 50.8 54.1-6.3-28.8-26-53.6-50.8-54.1z" fill="#7CD0A4" p-id="3799"></path></svg>