<?xml version="1.0" standalone="no"?><!DOCTYPE svg PUBLIC "-//W3C//DTD SVG 1.1//EN" "http://www.w3.org/Graphics/SVG/1.1/DTD/svg11.dtd"><svg t="1585986996707" class="icon" viewBox="0 0 1024 1024" version="1.1" xmlns="http://www.w3.org/2000/svg" p-id="1539" xmlns:xlink="http://www.w3.org/1999/xlink" width="128" height="128"><defs><style type="text/css"></style></defs><path d="M133 909.5c0-24.6 169.7-44.5 379-44.5s379 19.9 379 44.5S721.3 954 512 954s-379-19.9-379-44.5z" fill="#EDEDEE" p-id="1540"></path><path d="M443.9 258c-1.3-12.2-12.2-45-3.6-70.8s39.5-73.3 54.9-83.8c15.4-10.5 40.9 5.7 37.6 21s-46.3 48.5-57.8 70.8-6.4 52-10.8 62.9c-4.5 10.8-12.4 2.2-15.9 2.2s-3.1 9.8-4.4-2.3z" fill="#976C4F" p-id="1541"></path><path d="M152 518c0-151.3 135.4-274 302.5-274S757 366.7 757 518 621.6 792 454.5 792 152 669.3 152 518z" fill="#FB6568" p-id="1542"></path><path d="M287 567h606l-1.4 25.3C876.1 730.3 747 838 590 838S303.9 730.3 288.4 592.3L287 567z" fill="#F9272C" p-id="1543"></path><path d="M451.2 246l29.8 1.4-10 0.5c-152.9 14-272.2 130.5-272.2 272.1 0 141.5 119.3 258 272.2 272l1.2 0.1-21 1C283.7 793 148 670.5 148 519.5S283.7 246 451.2 246z" fill="#F9272C" p-id="1544"></path><path d="M348 567h484l-1.1 20.3C818.5 697.8 715.4 784 590 784s-228.5-86.2-240.9-196.7L348 567z" fill="#FB6568" p-id="1545"></path><path d="M504.7 618.8l-1-48 170.3-3.4 1 48c0.9 47-36.4 85.9-83.5 86.9-47 0.9-85.9-36.5-86.8-83.5z" fill="#FC9A9C" p-id="1546"></path><path d="M791.9 618.4c-2 5.6-8.2 8.5-13.9 6.5l-15.2-5.5c-5.6-2-8.5-8.2-6.5-13.8 2-5.6 8.2-8.5 13.8-6.5l15.2 5.5c5.8 2 8.7 8.2 6.6 13.8zM754.6 683c-3.8 4.6-10.7 5.2-15.2 1.3L727 673.9c-4.6-3.8-5.2-10.7-1.3-15.2 3.8-4.6 10.7-5.2 15.2-1.3l12.4 10.4c4.6 3.8 5.2 10.6 1.3 15.2zM697.5 730.9c-5.2 3-11.8 1.2-14.8-4l-8.1-14c-3-5.2-1.2-11.8 4-14.8s11.8-1.2 14.8 4l8.1 14c2.9 5.2 1.2 11.8-4 14.8zM627.4 756.4c-5.9 1-11.5-2.9-12.5-8.8l-2.8-16c-1-5.9 2.9-11.5 8.8-12.5s11.5 2.9 12.5 8.8l2.8 16c1 5.9-2.9 11.5-8.8 12.5zM552.8 756.4c-5.9-1-9.8-6.6-8.8-12.5l2.8-16c1-5.9 6.6-9.8 12.5-8.8s9.8 6.6 8.8 12.5l-2.8 16c-1 6-6.6 9.9-12.5 8.8zM482.7 730.9c-5.2-3-6.9-9.6-4-14.8l8.1-14c3-5.2 9.6-6.9 14.8-4s6.9 9.6 4 14.8l-8.1 14c-3 5.2-9.6 7-14.8 4zM425.6 683c-3.8-4.6-3.2-11.4 1.3-15.2l12.4-10.4c4.6-3.8 11.4-3.2 15.2 1.3 3.8 4.6 3.2 11.4-1.3 15.2l-12.4 10.4c-4.6 3.8-11.4 3.3-15.2-1.3zM388.3 618.4c-2-5.6 0.9-11.8 6.5-13.8l15.2-5.5c5.6-2 11.8 0.8 13.8 6.5 2 5.6-0.9 11.8-6.5 13.8l-15.2 5.5c-5.6 2-11.8-0.9-13.8-6.5z" fill="#FED572" p-id="1547"></path><path d="M452.2 237l2.3 0.1 2.3-0.1v0.3l23.9 1.4c28.7 2.2 58.1 6.4 90.4 18.7 43.1 16.4 128.8 63.4 139.4 78 10.6 14.6-42.9 8.2-75.7 9.6-20.5 0.9-50.5 3.2-77.7 3l-13.1-0.4-75.5-87.3-71.9 83.2-1.1 0.4c-31.7 7.8-88.5 2.6-121.4 1.2s-86.3 5-75.7-9.6c10.6-14.6 96.4-61.6 139.4-78 32.3-12.3 61.7-16.5 90.4-18.7l23.9-1.4 0.1-0.4z" fill="#7CD0A4" p-id="1548"></path><path d="M453.6 238c-45.2 23.4-66.5 29-109.5 59.6s-55.6 68.1-55.1 81.1 33.2 6.8 58.2-3.1 67.3-27.3 91.8-56.2c24.5-28.9 14.6-54.5 19-81.4" fill="#4DBF83" p-id="1549"></path><path d="M458.4 238c45.2 23.4 66.5 28.9 109.5 59.6 43 30.6 55.6 68.1 55.1 81.1s-33.2 6.8-58.2-3.1-67.3-27.3-91.8-56.2c-24.5-28.9-14.6-54.5-19-81.4" fill="#4DBF83" p-id="1550"></path></svg>