<?xml version="1.0" standalone="no"?><!DOCTYPE svg PUBLIC "-//W3C//DTD SVG 1.1//EN" "http://www.w3.org/Graphics/SVG/1.1/DTD/svg11.dtd"><svg t="1585986954959" class="icon" viewBox="0 0 1024 1024" version="1.1" xmlns="http://www.w3.org/2000/svg" p-id="1014" width="128" height="128" xmlns:xlink="http://www.w3.org/1999/xlink"><defs><style type="text/css"></style></defs><path d="M304 287.5c0-17.9 96.9-32.5 216.5-32.5S737 269.6 737 287.5 640.1 320 520.5 320 304 305.4 304 287.5z" fill="#FED572" p-id="1015"></path><path d="M337.9 304.7l161-123.5c7.3-5.6 18.8-5.6 26.1 0l161 123.5c12.4 9.5 4.1 26.3-13 26.3H351c-17.1 0-25.5-16.8-13.1-26.3" fill="#ECECEE" p-id="1016"></path><path d="M496 217.5c0-4.1 3.4-7.5 7.5-7.5s7.5 3.4 7.5 7.5-3.4 7.5-7.5 7.5-7.5-3.4-7.5-7.5zM520 257c0-6.6 5.6-12 12.5-12s12.5 5.4 12.5 12-5.6 12-12.5 12-12.5-5.4-12.5-12zM570 279c0-4.4 3.6-8 8-8s8 3.6 8 8-3.6 8-8 8-8-3.6-8-8zM468 300.5c0-4.1 3.6-7.5 8-7.5s8 3.4 8 7.5-3.6 7.5-8 7.5-8-3.4-8-7.5zM452 273.5c0-6.4 5.1-11.5 11.5-11.5s11.5 5.1 11.5 11.5-5.1 11.5-11.5 11.5-11.5-5.1-11.5-11.5z" fill="#FFFFFF" p-id="1017"></path><path d="M133 909.5c0-24.6 169.7-44.5 379-44.5s379 19.9 379 44.5S721.3 954 512 954s-379-19.9-379-44.5z" fill="#EDEDEE" p-id="1018"></path><path d="M512 802h270.9l10.5 41.5c3 11.9-6.1 23.5-18.5 23.5H249.1c-12.4 0-21.5-11.6-18.5-23.5L241 802h271z" fill="#FDB80B" p-id="1019"></path><path d="M332.7 294l179.3 0.7V803H241.4l-2-1.8c-75.2-79.8 7.8-446.4 93.3-507.2z m358.6 0c85.5 60.8 168.5 427.4 93.4 507.2l-2 1.8H512V294.7l179.3-0.7z" fill="#FED572" p-id="1020"></path><path d="M271.6 341.6l32.6-59.6c87.1 17.1 348.9 13.7 433.1 2.9l15.2 56.6c3.2 11.9-6.5 48.5-38.6 48.5-76.9 3.9-325.2 3.9-402.1 0-33.8 4.5-43.4-36.5-40.2-48.4" fill="#FDB80B" p-id="1021"></path><path d="M376 599.5c0-80.9 65.6-146.5 146.5-146.5S669 518.6 669 599.5 603.4 746 522.5 746 376 680.4 376 599.5z m14.4 0c0 73 59.2 132.1 132.1 132.1 73 0 132.1-59.2 132.1-132.1s-59.1-132.1-132.1-132.1-132.1 59.1-132.1 132.1z" fill="#66605A" p-id="1022"></path><path d="M574.4 521c-40 45.9-60.8 106.2-56.9 168 1.2-0.1 2.3-0.1 3.5-0.2-3.9-60.9 16.6-120.3 56-165.4-0.9-0.8-1.8-1.6-2.6-2.4z" fill="#66605A" p-id="1023"></path><path d="M495.9 590c-9.3 27.8 4.6 53.3 24.5 55 2.9-24-5.6-48-24.5-55z" fill="#66605A" p-id="1024"></path><path d="M565 612.9c-6.6 19.5-24.7 34.9-45 33 3.3-26.1 26-40.2 45-33zM514.6 548c-13.7 25.7-4.6 52.8 14.3 58 6.8-22.8 2.7-47.9-14.3-58zM578 582c-9.6 17.5-29.7 29-49 23.7 7.6-24.2 31.9-33.9 49-23.7zM540.5 508c-17.9 23.1-13.6 51.5 3.9 60 10.5-21.3 10.9-47-3.9-60z" fill="#66605A" p-id="1025"></path><path d="M597 553.2c-12.8 16.1-34.7 24-53 15.2 11.8-23.1 37.8-28.6 53-15.2zM602 497c-5.1 22.2-21.5 40.3-42.8 47-2.4-22.6 19.7-46.9 42.8-47zM442.1 614.9c33.2 13.2 60.2 39.2 74.6 72.5-0.6 0.3-1.3 0.5-1.9 0.8-14.2-32.8-40.8-58.4-73.5-71.4 0.2-0.6 0.5-1.2 0.8-1.9z" fill="#66605A" p-id="1026"></path><path d="M501.5 630c12.3 12.1 11.8 29.1 1.9 35.3-8-11.7-9.9-26.6-1.9-35.3zM471.6 660.4c8.5 8.2 21.8 11.3 31.8 5-8.6-12.5-23.9-13.7-31.8-5zM480.3 612.6c14.2 9.8 16.6 26.5 7.9 34.4-9.7-10.2-14.2-24.5-7.9-34.4z" fill="#66605A" p-id="1027"></path><path d="M456.2 647.7c9.8 6.6 23.4 7.3 32.1-0.7-10.5-10.7-25.8-9.3-32.1 0.7zM456.2 598.9c15.8 7.2 21.1 23.2 13.9 32.5-11.4-8.2-18.4-21.6-13.9-32.5zM438.6 637.7c10.9 4.8 24.3 3.1 31.5-6.3-12.1-8.6-27.1-4.5-31.5 6.3zM421.1 609.5c8.6 10.3 22.1 15.4 35 13.2-4.7-12.5-22.8-19.3-35-13.2z" fill="#66605A" p-id="1028"></path></svg>