<?xml version="1.0" standalone="no"?><!DOCTYPE svg PUBLIC "-//W3C//DTD SVG 1.1//EN" "http://www.w3.org/Graphics/SVG/1.1/DTD/svg11.dtd"><svg t="1590369606008" class="icon" viewBox="0 0 1024 1024" version="1.1" xmlns="http://www.w3.org/2000/svg" p-id="3514" xmlns:xlink="http://www.w3.org/1999/xlink" width="128" height="128"><defs><style type="text/css"></style></defs><path d="M133 909.5c0-24.6 169.7-44.5 379-44.5s379 19.9 379 44.5S721.3 954 512 954s-379-19.9-379-44.5z" fill="#EDEDEE" p-id="3515"></path><path d="M323 249c89.5 0 168 114.7 168 245.4 0 49.9-17.4 97.7-49.2 134.5-15.5 18-33.5 32.2-53.4 42.2-21 10.5-43 15.8-65.4 15.8-22.5 0-44.5-5.3-65.4-15.8-20-10-37.9-24.2-53.4-42.2-31.8-36.8-49.2-84.6-49.2-134.5C155 363.7 233.5 249 323 249zM701.5 241C790.8 241 869 355.7 869 486.4c0 49.9-17.4 97.7-49.1 134.5-15.5 18-33.4 32.2-53.2 42.2-20.9 10.5-42.8 15.8-65.3 15.8-22.4 0-44.3-5.3-65.2-15.8-19.9-10-37.8-24.2-53.2-42.2-31.7-36.8-49.1-84.6-49.1-134.5C534 355.7 612.3 241 701.5 241z" fill="#FEE6AA" p-id="3516"></path><path d="M499 307c89.5 0 168 114.7 168 245.4 0 49.9-17.4 97.7-49.2 134.5-15.5 18-33.5 32.2-53.4 42.2-21 10.5-43 15.8-65.4 15.8-22.5 0-44.5-5.3-65.4-15.8-20-10-37.9-24.2-53.4-42.2-31.8-36.8-49.2-84.6-49.2-134.5C331 421.7 409.5 307 499 307z" fill="#EEEFF3" p-id="3517"></path><path d="M414 582c0-49.2 40.1-89 89.5-89s89.5 39.8 89.5 89-40.1 89-89.5 89-89.5-39.8-89.5-89z" fill="#FAAC7F" p-id="3518"></path></svg>